<svg viewBox="-116 -41 221 82" xmlns="http://www.w3.org/2000/svg" font-family="sans-serif">
  <rect x="-116" y="-41" width="221" height="82" fill="#0d0b14"/>
  <g transform="translate(-75,0)">
      <circle cx="0" cy="0" r="35" fill="none" stroke="#5c4f9c" stroke-width="0.3" stroke-dasharray="1,0.8"/>
      <line x1="-35" y1="0" x2="35" y2="0" stroke="#3a3470" stroke-width="0.15"/>
      <line x1="0" y1="-35" x2="0" y2="35" stroke="#3a3470" stroke-width="0.15"/>
      <circle cx="-18" cy="2" r="2.4" fill="#f4c430" fill-opacity="0.75" stroke="#a9821f" stroke-width="0.4"/>
  <circle cx="-18" cy="-0.3999999999999999" r="2.4" fill="#f4c430" fill-opacity="0.75" stroke="#a9821f" stroke-width="0.4"/>
  <circle cx="-18" cy="-2.8" r="2.4" fill="#f4c430" fill-opacity="0.75" stroke="#a9821f" stroke-width="0.4"/>
  <circle cx="-18" cy="-5.199999999999999" r="2.4" fill="#f4c430" fill-opacity="0.75" stroke="#a9821f" stroke-width="0.4"/>
  <circle cx="-18" cy="-7.6" r="2.4" fill="#f4c430" fill-opacity="0.75" stroke="#a9821f" stroke-width="0.4"/>
  <circle cx="-14.4" cy="2" r="2.4" fill="#f4c430" fill-opacity="0.75" stroke="#a9821f" stroke-width="0.4"/>
  <circle cx="-14.4" cy="-0.3999999999999999" r="2.4" fill="#f4c430" fill-opacity="0.75" stroke="#a9821f" stroke-width="0.4"/>
  <circle cx="-14.4" cy="-2.8" r="2.4" fill="#f4c430" fill-opacity="0.75" stroke="#a9821f" stroke-width="0.4"/>
  <circle cx="-14.4" cy="-5.199999999999999" r="2.4" fill="#f4c430" fill-opacity="0.75" stroke="#a9821f" stroke-width="0.4"/>
  <circle cx="-14.4" cy="-7.6" r="2.4" fill="#f4c430" fill-opacity="0.75" stroke="#a9821f" stroke-width="0.4"/>
  <circle cx="-10.8" cy="2" r="2.4" fill="#f4c430" fill-opacity="0.75" stroke="#a9821f" stroke-width="0.4"/>
  <circle cx="-10.8" cy="-0.3999999999999999" r="2.4" fill="#f4c430" fill-opacity="0.75" stroke="#a9821f" stroke-width="0.4"/>
  <circle cx="-10.8" cy="-2.8" r="2.4" fill="#f4c430" fill-opacity="0.75" stroke="#a9821f" stroke-width="0.4"/>
  <circle cx="-10.8" cy="-5.199999999999999" r="2.4" fill="#f4c430" fill-opacity="0.75" stroke="#a9821f" stroke-width="0.4"/>
  <circle cx="-10.8" cy="-7.6" r="2.4" fill="#f4c430" fill-opacity="0.75" stroke="#a9821f" stroke-width="0.4"/>
  <circle cx="-7.200000000000001" cy="2" r="2.4" fill="#f4c430" fill-opacity="0.75" stroke="#a9821f" stroke-width="0.4"/>
  <circle cx="-7.200000000000001" cy="-0.3999999999999999" r="2.4" fill="#f4c430" fill-opacity="0.75" stroke="#a9821f" stroke-width="0.4"/>
  <circle cx="-7.200000000000001" cy="-2.8" r="2.4" fill="#f4c430" fill-opacity="0.75" stroke="#a9821f" stroke-width="0.4"/>
  <circle cx="-7.200000000000001" cy="-5.199999999999999" r="2.4" fill="#f4c430" fill-opacity="0.75" stroke="#a9821f" stroke-width="0.4"/>
  <circle cx="-7.200000000000001" cy="-7.6" r="2.4" fill="#f4c430" fill-opacity="0.75" stroke="#a9821f" stroke-width="0.4"/>
  <circle cx="-3.600000000000001" cy="2" r="2.4" fill="#f4c430" fill-opacity="0.75" stroke="#a9821f" stroke-width="0.4"/>
  <circle cx="-3.600000000000001" cy="-0.3999999999999999" r="2.4" fill="#f4c430" fill-opacity="0.75" stroke="#a9821f" stroke-width="0.4"/>
  <circle cx="-3.600000000000001" cy="-2.8" r="2.4" fill="#f4c430" fill-opacity="0.75" stroke="#a9821f" stroke-width="0.4"/>
  <circle cx="-3.600000000000001" cy="-5.199999999999999" r="2.4" fill="#f4c430" fill-opacity="0.75" stroke="#a9821f" stroke-width="0.4"/>
  <circle cx="-3.600000000000001" cy="-7.6" r="2.4" fill="#f4c430" fill-opacity="0.75" stroke="#a9821f" stroke-width="0.4"/>
  <circle cx="-8.881784197001252e-16" cy="2" r="2.4" fill="#f4c430" fill-opacity="0.75" stroke="#a9821f" stroke-width="0.4"/>
  <circle cx="-8.881784197001252e-16" cy="-0.3999999999999999" r="2.4" fill="#f4c430" fill-opacity="0.75" stroke="#a9821f" stroke-width="0.4"/>
  <circle cx="-8.881784197001252e-16" cy="-2.8" r="2.4" fill="#f4c430" fill-opacity="0.75" stroke="#a9821f" stroke-width="0.4"/>
  <circle cx="-8.881784197001252e-16" cy="-5.199999999999999" r="2.4" fill="#f4c430" fill-opacity="0.75" stroke="#a9821f" stroke-width="0.4"/>
  <circle cx="-8.881784197001252e-16" cy="-7.6" r="2.4" fill="#f4c430" fill-opacity="0.75" stroke="#a9821f" stroke-width="0.4"/>
  <circle cx="3.599999999999999" cy="2" r="2.4" fill="#f4c430" fill-opacity="0.75" stroke="#a9821f" stroke-width="0.4"/>
  <circle cx="3.599999999999999" cy="-0.3999999999999999" r="2.4" fill="#f4c430" fill-opacity="0.75" stroke="#a9821f" stroke-width="0.4"/>
  <circle cx="3.599999999999999" cy="-2.8" r="2.4" fill="#f4c430" fill-opacity="0.75" stroke="#a9821f" stroke-width="0.4"/>
  <circle cx="3.599999999999999" cy="-5.199999999999999" r="2.4" fill="#f4c430" fill-opacity="0.75" stroke="#a9821f" stroke-width="0.4"/>
  <circle cx="3.599999999999999" cy="-7.6" r="2.4" fill="#f4c430" fill-opacity="0.75" stroke="#a9821f" stroke-width="0.4"/>
  <circle cx="7.199999999999999" cy="2" r="2.4" fill="#f4c430" fill-opacity="0.75" stroke="#a9821f" stroke-width="0.4"/>
  <circle cx="7.199999999999999" cy="-0.3999999999999999" r="2.4" fill="#f4c430" fill-opacity="0.75" stroke="#a9821f" stroke-width="0.4"/>
  <circle cx="7.199999999999999" cy="-2.8" r="2.4" fill="#f4c430" fill-opacity="0.75" stroke="#a9821f" stroke-width="0.4"/>
  <circle cx="7.199999999999999" cy="-5.199999999999999" r="2.4" fill="#f4c430" fill-opacity="0.75" stroke="#a9821f" stroke-width="0.4"/>
  <circle cx="7.199999999999999" cy="-7.6" r="2.4" fill="#f4c430" fill-opacity="0.75" stroke="#a9821f" stroke-width="0.4"/>
  <circle cx="10.799999999999999" cy="2" r="2.4" fill="#f4c430" fill-opacity="0.75" stroke="#a9821f" stroke-width="0.4"/>
  <circle cx="10.799999999999999" cy="-0.3999999999999999" r="2.4" fill="#f4c430" fill-opacity="0.75" stroke="#a9821f" stroke-width="0.4"/>
  <circle cx="10.799999999999999" cy="-2.8" r="2.4" fill="#f4c430" fill-opacity="0.75" stroke="#a9821f" stroke-width="0.4"/>
  <circle cx="10.799999999999999" cy="-5.199999999999999" r="2.4" fill="#f4c430" fill-opacity="0.75" stroke="#a9821f" stroke-width="0.4"/>
  <circle cx="10.799999999999999" cy="-7.6" r="2.4" fill="#f4c430" fill-opacity="0.75" stroke="#a9821f" stroke-width="0.4"/>
  <circle cx="14.399999999999999" cy="2" r="2.4" fill="#f4c430" fill-opacity="0.75" stroke="#a9821f" stroke-width="0.4"/>
  <circle cx="14.399999999999999" cy="-0.3999999999999999" r="2.4" fill="#f4c430" fill-opacity="0.75" stroke="#a9821f" stroke-width="0.4"/>
  <circle cx="14.399999999999999" cy="-2.8" r="2.4" fill="#f4c430" fill-opacity="0.75" stroke="#a9821f" stroke-width="0.4"/>
  <circle cx="14.399999999999999" cy="-5.199999999999999" r="2.4" fill="#f4c430" fill-opacity="0.75" stroke="#a9821f" stroke-width="0.4"/>
  <circle cx="14.399999999999999" cy="-7.6" r="2.4" fill="#f4c430" fill-opacity="0.75" stroke="#a9821f" stroke-width="0.4"/>
  <circle cx="18" cy="2" r="2.4" fill="#f4c430" fill-opacity="0.75" stroke="#a9821f" stroke-width="0.4"/>
  <circle cx="18" cy="-0.3999999999999999" r="2.4" fill="#f4c430" fill-opacity="0.75" stroke="#a9821f" stroke-width="0.4"/>
  <circle cx="18" cy="-2.8" r="2.4" fill="#f4c430" fill-opacity="0.75" stroke="#a9821f" stroke-width="0.4"/>
  <circle cx="18" cy="-5.199999999999999" r="2.4" fill="#f4c430" fill-opacity="0.75" stroke="#a9821f" stroke-width="0.4"/>
  <circle cx="18" cy="-7.6" r="2.4" fill="#f4c430" fill-opacity="0.75" stroke="#a9821f" stroke-width="0.4"/>
    <rect x="-6.4" y="-4.199999999999999" width="12" height="9.6" fill="#f4c430" fill-opacity="0.75" stroke="#a9821f" stroke-width="0.5"/>
    <rect x="15.6" y="-18.560000000000002" width="13.8" height="24.96" fill="#8a8a96" fill-opacity="0.75" stroke="#1c1c22" stroke-width="1.2"/>
    <rect x="-29.4" y="-18.560000000000002" width="13.8" height="24.96" fill="#8a8a96" fill-opacity="0.75" stroke="#1c1c22" stroke-width="1.2"/>
    <g>
    <circle cx="-14" cy="20" r="1.3" fill="#ffe9a8" stroke="#2a2438" stroke-width="0.25"/>
    <text x="-14" y="23.1" font-size="1.7" fill="#c9c2e8" text-anchor="middle" font-family="sans-serif">ミラ</text>
  </g>
    <g>
    <circle cx="0" cy="23" r="1.3" fill="#ffe9a8" stroke="#2a2438" stroke-width="0.25"/>
    <text x="0" y="26.1" font-size="1.7" fill="#c9c2e8" text-anchor="middle" font-family="sans-serif">レン</text>
  </g>
    <g>
    <circle cx="14" cy="20" r="1.3" fill="#ffe9a8" stroke="#2a2438" stroke-width="0.25"/>
    <text x="14" y="23.1" font-size="1.7" fill="#c9c2e8" text-anchor="middle" font-family="sans-serif">ソウ</text>
  </g>
    <g>
    <polygon points="0,-24.6 -1.4,-21.8 1.4,-21.8" fill="#f4c430" stroke="#2a2438" stroke-width="0.25"/>
    <text x="0" y="-25.1" font-size="1.7" fill="#fff8e1" text-anchor="middle" font-family="sans-serif">魔導書の守護者</text>
  </g>
    <g>
    <polygon points="-15,-18.6 -16.4,-15.8 -13.6,-15.8" fill="#b483ff" stroke="#2a2438" stroke-width="0.25"/>
    <text x="-15" y="-19.1" font-size="1.7" fill="#fff8e1" text-anchor="middle" font-family="sans-serif">眷属(迂回)</text>
  </g>
    <g>
    <polygon points="15,-18.6 13.6,-15.8 16.4,-15.8" fill="#f4c430" stroke="#2a2438" stroke-width="0.25"/>
    <text x="15" y="-19.1" font-size="1.7" fill="#fff8e1" text-anchor="middle" font-family="sans-serif">眷属(火力)</text>
  </g>
      <text x="-34" y="-32" font-size="2.4" fill="#fff8e1">上層 rField=35 (HP100〜66%超)</text>
    </g>
  <g transform="translate(0,0)">
      <circle cx="0" cy="0" r="28" fill="none" stroke="#5c4f9c" stroke-width="0.3" stroke-dasharray="1,0.8"/>
      <line x1="-28" y1="0" x2="28" y2="0" stroke="#3a3470" stroke-width="0.15"/>
      <line x1="0" y1="-28" x2="0" y2="28" stroke="#3a3470" stroke-width="0.15"/>
      <rect x="-12.4" y="-1.4" width="24.8" height="4.8" fill="#7b5cc4" fill-opacity="0.75" stroke="#4d3d80" stroke-width="0.5"/>
    <g>
    <circle cx="-14" cy="20" r="1.3" fill="#ffe9a8" stroke="#2a2438" stroke-width="0.25"/>
    <text x="-14" y="23.1" font-size="1.7" fill="#c9c2e8" text-anchor="middle" font-family="sans-serif">ミラ</text>
  </g>
    <g>
    <circle cx="0" cy="23" r="1.3" fill="#ffe9a8" stroke="#2a2438" stroke-width="0.25"/>
    <text x="0" y="26.1" font-size="1.7" fill="#c9c2e8" text-anchor="middle" font-family="sans-serif">レン</text>
  </g>
    <g>
    <circle cx="14" cy="20" r="1.3" fill="#ffe9a8" stroke="#2a2438" stroke-width="0.25"/>
    <text x="14" y="23.1" font-size="1.7" fill="#c9c2e8" text-anchor="middle" font-family="sans-serif">ソウ</text>
  </g>
    <g>
    <polygon points="0,-24.6 -1.4,-21.8 1.4,-21.8" fill="#f4c430" stroke="#2a2438" stroke-width="0.25"/>
    <text x="0" y="-25.1" font-size="1.7" fill="#fff8e1" text-anchor="middle" font-family="sans-serif">魔導書の守護者</text>
  </g>
    <text x="0" y="26" font-size="1.6" fill="#c7c2d6" text-anchor="middle">(眷属は残存)</text>
      <text x="-27" y="-25" font-size="2.4" fill="#fff8e1">中層 rField=28 (HP≤66%)</text>
    </g>
  <g transform="translate(64,0)">
      <circle cx="0" cy="0" r="24" fill="none" stroke="#5c4f9c" stroke-width="0.3" stroke-dasharray="1,0.8"/>
      <line x1="-24" y1="0" x2="24" y2="0" stroke="#3a3470" stroke-width="0.15"/>
      <line x1="0" y1="-24" x2="0" y2="24" stroke="#3a3470" stroke-width="0.15"/>
      <g>
    <circle cx="-14" cy="20" r="1.3" fill="#ffe9a8" stroke="#2a2438" stroke-width="0.25"/>
    <text x="-14" y="23.1" font-size="1.7" fill="#c9c2e8" text-anchor="middle" font-family="sans-serif">ミラ</text>
  </g>
    <g>
    <circle cx="0" cy="23" r="1.3" fill="#ffe9a8" stroke="#2a2438" stroke-width="0.25"/>
    <text x="0" y="26.1" font-size="1.7" fill="#c9c2e8" text-anchor="middle" font-family="sans-serif">レン</text>
  </g>
    <g>
    <circle cx="14" cy="20" r="1.3" fill="#ffe9a8" stroke="#2a2438" stroke-width="0.25"/>
    <text x="14" y="23.1" font-size="1.7" fill="#c9c2e8" text-anchor="middle" font-family="sans-serif">ソウ</text>
  </g>
    <g>
    <polygon points="0,-24.6 -1.4,-21.8 1.4,-21.8" fill="#f4c430" stroke="#2a2438" stroke-width="0.25"/>
    <text x="0" y="-25.1" font-size="1.7" fill="#fff8e1" text-anchor="middle" font-family="sans-serif">魔導書の守護者</text>
  </g>
    <text x="0" y="26" font-size="1.6" fill="#c7c2d6" text-anchor="middle">(眷属間引き・単独)</text>
      <text x="-23" y="-21" font-size="2.4" fill="#fff8e1">下層 rField=24 (HP≤33%)</text>
    </g>
</svg>