<svg viewBox="-60 -60 120 120" xmlns="http://www.w3.org/2000/svg" font-family="sans-serif">
  <rect x="-60" y="-60" width="120" height="120" fill="#0d0b14"/>
  <line x1="-60" y1="0" x2="60" y2="0" stroke="#3a3470" stroke-width="0.2"/>
  <line x1="0" y1="-60" x2="0" y2="60" stroke="#3a3470" stroke-width="0.2"/>
  <circle cx="0" cy="0" r="54" fill="none" stroke="#5c4f9c" stroke-width="0.4" stroke-dasharray="1.2,1"/>
  <rect x="-60" y="-60" width="41" height="120" fill="#3a3a44" fill-opacity="0.9" stroke="#22222a" stroke-width="0.4"/>
  <rect x="19" y="-60" width="41" height="120" fill="#3a3a44" fill-opacity="0.9" stroke="#22222a" stroke-width="0.4"/>
  <circle cx="-18" cy="1" r="2.4" fill="#f4c430" fill-opacity="0.8" stroke="#e8e8e8" stroke-width="0.55"/>
  <circle cx="-18" cy="-1.4" r="2.4" fill="#f4c430" fill-opacity="0.8" stroke="#e8e8e8" stroke-width="0.55"/>
  <circle cx="-18" cy="-3.8" r="2.4" fill="#f4c430" fill-opacity="0.8" stroke="#e8e8e8" stroke-width="0.55"/>
  <circle cx="-18" cy="-6.199999999999999" r="2.4" fill="#f4c430" fill-opacity="0.8" stroke="#e8e8e8" stroke-width="0.55"/>
  <circle cx="-14.4" cy="1" r="2.4" fill="#f4c430" fill-opacity="0.8" stroke="#e8e8e8" stroke-width="0.55"/>
  <circle cx="-14.4" cy="-1.4" r="2.4" fill="#f4c430" fill-opacity="0.8" stroke="#e8e8e8" stroke-width="0.55"/>
  <circle cx="-14.4" cy="-3.8" r="2.4" fill="#f4c430" fill-opacity="0.8" stroke="#e8e8e8" stroke-width="0.55"/>
  <circle cx="-14.4" cy="-6.199999999999999" r="2.4" fill="#f4c430" fill-opacity="0.8" stroke="#e8e8e8" stroke-width="0.55"/>
  <circle cx="-10.8" cy="1" r="2.4" fill="#f4c430" fill-opacity="0.8" stroke="#e8e8e8" stroke-width="0.55"/>
  <circle cx="-10.8" cy="-1.4" r="2.4" fill="#f4c430" fill-opacity="0.8" stroke="#e8e8e8" stroke-width="0.55"/>
  <circle cx="-10.8" cy="-3.8" r="2.4" fill="#f4c430" fill-opacity="0.8" stroke="#e8e8e8" stroke-width="0.55"/>
  <circle cx="-10.8" cy="-6.199999999999999" r="2.4" fill="#f4c430" fill-opacity="0.8" stroke="#e8e8e8" stroke-width="0.55"/>
  <circle cx="-7.200000000000001" cy="1" r="2.4" fill="#f4c430" fill-opacity="0.8" stroke="#e8e8e8" stroke-width="0.55"/>
  <circle cx="-7.200000000000001" cy="-1.4" r="2.4" fill="#f4c430" fill-opacity="0.8" stroke="#e8e8e8" stroke-width="0.55"/>
  <circle cx="-7.200000000000001" cy="-3.8" r="2.4" fill="#f4c430" fill-opacity="0.8" stroke="#e8e8e8" stroke-width="0.55"/>
  <circle cx="-7.200000000000001" cy="-6.199999999999999" r="2.4" fill="#f4c430" fill-opacity="0.8" stroke="#e8e8e8" stroke-width="0.55"/>
  <circle cx="6" cy="1" r="2.4" fill="#7b5cc4" fill-opacity="0.8" stroke="#e8e8e8" stroke-width="0.55"/>
  <circle cx="6" cy="-1.4" r="2.4" fill="#7b5cc4" fill-opacity="0.8" stroke="#e8e8e8" stroke-width="0.55"/>
  <circle cx="6" cy="-3.8" r="2.4" fill="#7b5cc4" fill-opacity="0.8" stroke="#e8e8e8" stroke-width="0.55"/>
  <circle cx="6" cy="-6.199999999999999" r="2.4" fill="#7b5cc4" fill-opacity="0.8" stroke="#e8e8e8" stroke-width="0.55"/>
  <circle cx="9.6" cy="1" r="2.4" fill="#7b5cc4" fill-opacity="0.8" stroke="#e8e8e8" stroke-width="0.55"/>
  <circle cx="9.6" cy="-1.4" r="2.4" fill="#7b5cc4" fill-opacity="0.8" stroke="#e8e8e8" stroke-width="0.55"/>
  <circle cx="9.6" cy="-3.8" r="2.4" fill="#7b5cc4" fill-opacity="0.8" stroke="#e8e8e8" stroke-width="0.55"/>
  <circle cx="9.6" cy="-6.199999999999999" r="2.4" fill="#7b5cc4" fill-opacity="0.8" stroke="#e8e8e8" stroke-width="0.55"/>
  <circle cx="13.2" cy="1" r="2.4" fill="#7b5cc4" fill-opacity="0.8" stroke="#e8e8e8" stroke-width="0.55"/>
  <circle cx="13.2" cy="-1.4" r="2.4" fill="#7b5cc4" fill-opacity="0.8" stroke="#e8e8e8" stroke-width="0.55"/>
  <circle cx="13.2" cy="-3.8" r="2.4" fill="#7b5cc4" fill-opacity="0.8" stroke="#e8e8e8" stroke-width="0.55"/>
  <circle cx="13.2" cy="-6.199999999999999" r="2.4" fill="#7b5cc4" fill-opacity="0.8" stroke="#e8e8e8" stroke-width="0.55"/>
  <circle cx="16.8" cy="1" r="2.4" fill="#7b5cc4" fill-opacity="0.8" stroke="#e8e8e8" stroke-width="0.55"/>
  <circle cx="16.8" cy="-1.4" r="2.4" fill="#7b5cc4" fill-opacity="0.8" stroke="#e8e8e8" stroke-width="0.55"/>
  <circle cx="16.8" cy="-3.8" r="2.4" fill="#7b5cc4" fill-opacity="0.8" stroke="#e8e8e8" stroke-width="0.55"/>
  <circle cx="16.8" cy="-6.199999999999999" r="2.4" fill="#7b5cc4" fill-opacity="0.8" stroke="#e8e8e8" stroke-width="0.55"/>
  <rect x="-18.4" y="-18.4" width="9.8" height="4.8" fill="#7b5cc4" fill-opacity="0.8" stroke="#e8e8e8" stroke-width="0.55"/>
  <rect x="6.6" y="-17.4" width="10.8" height="4.8" fill="#f4c430" fill-opacity="0.8" stroke="#e8e8e8" stroke-width="0.55"/>
  <circle cx="-18" cy="-8" r="2.4" fill="#3a3a44" fill-opacity="0.9" stroke="#22222a" stroke-width="0.4"/>
  <circle cx="-18" cy="-10.4" r="2.4" fill="#3a3a44" fill-opacity="0.9" stroke="#22222a" stroke-width="0.4"/>
  <circle cx="-18" cy="-12.8" r="2.4" fill="#3a3a44" fill-opacity="0.9" stroke="#22222a" stroke-width="0.4"/>
  <circle cx="-18" cy="-15.2" r="2.4" fill="#3a3a44" fill-opacity="0.9" stroke="#22222a" stroke-width="0.4"/>
  <circle cx="18" cy="-8" r="2.4" fill="#3a3a44" fill-opacity="0.9" stroke="#22222a" stroke-width="0.4"/>
  <circle cx="18" cy="-10.4" r="2.4" fill="#3a3a44" fill-opacity="0.9" stroke="#22222a" stroke-width="0.4"/>
  <circle cx="18" cy="-12.8" r="2.4" fill="#3a3a44" fill-opacity="0.9" stroke="#22222a" stroke-width="0.4"/>
  <circle cx="18" cy="-15.2" r="2.4" fill="#3a3a44" fill-opacity="0.9" stroke="#22222a" stroke-width="0.4"/>
  <g><circle cx="-14" cy="20" r="1.4" fill="#ffe9a8" stroke="#2a2438" stroke-width="0.3"/><text x="-14" y="24" font-size="2.7" fill="#c9c2e8" text-anchor="middle">ミラ</text></g>
  <g><circle cx="0" cy="23" r="1.4" fill="#ffe9a8" stroke="#2a2438" stroke-width="0.3"/><text x="0" y="27" font-size="2.7" fill="#c9c2e8" text-anchor="middle">レン</text></g>
  <g><circle cx="14" cy="20" r="1.4" fill="#ffe9a8" stroke="#2a2438" stroke-width="0.3"/><text x="14" y="24" font-size="2.7" fill="#c9c2e8" text-anchor="middle">ソウ</text></g>
  <g><polygon points="-5,-26.6 -6.5,-23.7 -3.5,-23.7" fill="#f4c430" stroke="#2a2438" stroke-width="0.3"/><text x="-5" y="-27.4" font-size="2.7" fill="#fff8e1" text-anchor="middle">鏡像の衛士（光）(火力)</text></g>
  <g><polygon points="5,-26.6 3.5,-23.7 6.5,-23.7" fill="#7b5cc4" stroke="#2a2438" stroke-width="0.3"/><text x="5" y="-27.4" font-size="2.7" fill="#fff8e1" text-anchor="middle">鏡像の衛士（闇）(火力)</text></g>
  <g><polygon points="-13,-21.6 -14.5,-18.7 -11.5,-18.7" fill="#7b5cc4" stroke="#2a2438" stroke-width="0.3"/><text x="-13" y="-22.4" font-size="2.7" fill="#fff8e1" text-anchor="middle">鏡像の射手（闇）(迂回)</text></g>
  <g><polygon points="13,-21.6 11.5,-18.7 14.5,-18.7" fill="#f4c430" stroke="#2a2438" stroke-width="0.3"/><text x="13" y="-22.4" font-size="2.7" fill="#fff8e1" text-anchor="middle">鏡像の射手（光）(迂回)</text></g>
  <g><polygon points="0,-27.6 -1.5,-24.7 1.5,-24.7" fill="#f4c430" stroke="#2a2438" stroke-width="0.3"/><text x="0" y="-28.4" font-size="2.7" fill="#fff8e1" text-anchor="middle">鏡守のゴーレム(守護)</text></g>
  <text x="-58.5" y="-56.5" font-size="3.375" fill="#fff8e1">第五の間 ― 深層の広間（rField=54）</text>
  <text x="-58.5" y="58.5" font-size="2.4545454545454546" fill="#c9c2e8">金=光・紫=闇・灰=無属性／白縁=硬い(tough)・薄=もろい(fragile)・暗灰=割れない(unbreakable)</text>
</svg>
